<?xml version="1.0" encoding="iso-8859-1"?>
<!-- Generator: Adobe Illustrator 19.0.0, SVG Export Plug-In . SVG Version: 6.00 Build 0)  -->
<svg version="1.1" id="Layer_1" xmlns="http://www.w3.org/2000/svg" xmlns:xlink="http://www.w3.org/1999/xlink" x="0px" y="0px"
	 viewBox="0 0 512 512" style="enable-background:new 0 0 512 512;" xml:space="preserve">
<path style="fill:#546F7A;" d="M354.418,185.656c2.454-1.303,3.989-3.855,3.989-6.635V50.961c0-4.149-3.363-7.512-7.512-7.512
	h-71.687c-4.15,0-7.512,3.363-7.512,7.512v33.423H86.711V50.961c0-4.149-3.362-7.512-7.512-7.512H7.512
	C3.362,43.449,0,46.813,0,50.961v419.491c0,4.149,3.362,7.512,7.512,7.512h245.733c4.15,0,7.512-3.363,7.512-7.512v-5.313
	c0-25.105,8.972-49.136,25.946-69.492c16.312-19.562,38.878-33.941,63.543-40.485c0,0,0,0,0.001,0
	c0.762-0.202,1.528-0.387,2.296-0.573l0.118-0.028c3.37-0.815,5.744-3.833,5.744-7.302v-10.474c0-2.779-1.534-5.333-3.99-6.636
	c-17.316-9.191-28.072-26.973-28.072-46.408v-51.662C326.343,212.639,337.101,194.85,354.418,185.656z"/>
<g>
	<path style="fill:#465A65;" d="M86.711,84.384V50.961c0-4.149-3.362-7.512-7.512-7.512H59.668v40.935H86.711z"/>
	<path style="fill:#465A65;" d="M354.418,185.656c2.454-1.303,3.989-3.855,3.989-6.635V50.961c0-4.149-3.363-7.512-7.512-7.512
		h-19.531v135.572c0,2.756-1.496,5.315-3.932,6.605c-17.35,9.186-28.131,26.992-28.131,46.457v51.662
		c0,19.434,10.756,37.217,28.072,46.408c2.456,1.303,3.99,3.855,3.99,6.636v10.494c0,3.464-2.376,6.475-5.744,7.282l-0.118,0.028
		c-0.767,0.186-1.533,0.371-2.296,0.573c-0.001,0-0.001,0-0.001,0c-24.665,6.545-47.231,20.923-63.543,40.485
		c-16.973,20.357-25.946,44.386-25.946,69.492v12.825h19.531c4.15,0,7.512-3.363,7.512-7.512v-5.313
		c0-25.105,8.972-49.136,25.946-69.492c16.312-19.562,38.878-33.941,63.543-40.485c0,0,0,0,0.001,0
		c0.762-0.202,1.528-0.387,2.296-0.573l0.118-0.028c3.37-0.815,5.744-3.833,5.744-7.302v-10.474c0-2.779-1.534-5.333-3.99-6.636
		c-17.316-9.191-28.072-26.973-28.072-46.408v-51.662C326.343,212.639,337.101,194.85,354.418,185.656z"/>
</g>
<path style="fill:#EFE7E4;" d="M318.681,69.88h-39.474c-4.15,0-7.512,3.363-7.512,7.512v6.991H86.711v-6.991
	c0-4.149-3.362-7.512-7.512-7.512H39.724c-4.149,0-7.512,3.363-7.512,7.512v363.981c0,4.149,3.363,7.512,7.512,7.512h216.107
	c3.529,0,6.581-2.456,7.337-5.901c6.988-31.837,28.541-59.753,59.135-76.589c2.4-1.32,3.89-3.842,3.89-6.582V77.392
	C326.193,73.243,322.83,69.88,318.681,69.88z"/>
<path style="fill:#D8D1D0;" d="M318.681,69.88H299.15v294.453c0,0.003-0.002,0.006-0.005,0.008
	c-34.574,17.537-58.426,48.922-64.14,84.544h20.826c3.529,0,6.581-2.456,7.337-5.901c6.988-31.837,28.541-59.753,59.135-76.589
	c2.4-1.32,3.89-3.842,3.89-6.582V77.392C326.193,73.243,322.83,69.88,318.681,69.88z"/>
<path style="fill:#FF6137;" d="M254.99,263.874c-1.408-1.409-3.318-2.202-5.312-2.203l-78.175-0.035c-0.001,0-0.002,0-0.003,0
	c-2.342,0-4.549,1.092-5.971,2.953l-46.715,61.165c-2.503,3.277-1.896,7.961,1.36,10.491c15.016,11.67,33.024,17.839,52.076,17.839
	c46.812,0,84.914-38.084,84.936-84.897C257.188,267.194,256.398,265.284,254.99,263.874z"/>
<path style="fill:#E04F32;" d="M254.99,263.874c-1.408-1.409-3.318-2.202-5.312-2.203l-78.175-0.035c-0.001,0-0.002,0-0.003,0
	c-0.071,0-0.14,0.01-0.21,0.012l50.685,0.022c1.992,0.001,3.902,0.793,5.312,2.203c1.408,1.409,2.199,3.32,2.198,5.313
	c-0.019,42.131-30.888,77.175-71.184,83.768c4.566,0.748,9.227,1.13,13.951,1.13c46.812,0,84.913-38.084,84.936-84.897
	C257.188,267.194,256.398,265.284,254.99,263.874z"/>
<path style="fill:#F7CB4F;" d="M279.207,26.324h-60.993c-6.327-15.743-21.615-26.3-39.011-26.3s-32.685,10.556-39.012,26.3H79.199
	c-4.149,0-7.512,3.363-7.512,7.512v58.06c0,4.149,3.363,7.512,7.512,7.512h200.008c4.15,0,7.512-3.363,7.512-7.512v-58.06
	C286.719,29.687,283.355,26.324,279.207,26.324z"/>
<path style="fill:#68B9D8;" d="M378.969,336.165c-0.068-0.001-0.137-0.001-0.205,0c-72.11,0.987-133.031,60.051-133.031,128.975
	v39.323c0,4.149,3.362,7.512,7.512,7.512h251.243c4.15,0,7.512-3.363,7.512-7.512V465.14
	C512,396.214,451.079,337.151,378.969,336.165z"/>
<path style="fill:#3695B2;" d="M378.969,336.165c-0.068-0.001-0.137-0.001-0.205,0c-4.633,0.063-9.221,0.371-13.749,0.901
	c65.938,7.721,119.282,63.578,119.282,128.075v39.323c0,4.149-3.362,7.512-7.512,7.512h27.704c4.15,0,7.512-3.363,7.512-7.512
	v-39.323C512,396.214,451.079,337.151,378.969,336.165z"/>
<path style="fill:#F2464F;" d="M418.073,450.525l-17.045-73.989c-0.8-3.476-3.895-5.939-7.462-5.939h-29.398
	c-3.567,0-6.662,2.463-7.462,5.939l-17.045,73.989c-0.619,2.689,0.256,5.504,2.293,7.368l31.744,29.054
	c1.462,1.339,3.316,2.008,5.17,2.008c1.854,0,3.707-0.669,5.169-2.008l31.744-29.054
	C417.817,456.03,418.692,453.214,418.073,450.525z"/>
<g>
	<path style="fill:#D3333C;" d="M415.78,457.893c2.036-1.864,2.912-4.678,2.293-7.368l-16.423-71.292h-22.783h-5.612l16.721,72.584
		l-27.33,25.014l11.052,10.115c1.462,1.339,3.316,2.008,5.17,2.008c1.854,0,3.707-0.669,5.17-2.008L415.78,457.893z"/>
	<path style="fill:#D3333C;" d="M355.997,379.233h45.739l18.398-36.007c-13.025-4.382-26.873-6.866-41.164-7.062
		c-0.068-0.001-0.137-0.001-0.205,0c-14.347,0.196-28.248,2.698-41.317,7.113L355.997,379.233z"/>
</g>
<path style="fill:#AF273B;" d="M393.591,337.188l-20.337,42.046h28.481l18.398-36.007
	C411.605,340.357,402.718,338.319,393.591,337.188z"/>
<path style="fill:#FFC89F;" d="M378.867,164.535c-37.247,0-67.549,30.302-67.549,67.548v51.662
	c0,37.246,30.302,67.548,67.549,67.548c37.245,0,67.547-30.302,67.547-67.548v-51.662
	C446.414,194.837,416.112,164.535,378.867,164.535z"/>
<path style="fill:#F7B081;" d="M378.867,164.535c-4.706,0-9.299,0.487-13.736,1.407c30.681,6.363,53.811,33.6,53.811,66.14v51.662
	c0,32.54-23.13,59.777-53.811,66.14c4.437,0.921,9.03,1.407,13.736,1.407c37.245,0,67.547-30.302,67.547-67.548v-51.662
	C446.414,194.837,416.112,164.535,378.867,164.535z"/>
<path d="M446.414,258.012v-25.931c0-37.246-30.302-67.548-67.547-67.548c-37.247,0-67.549,30.302-67.549,67.548v25.938h7.363
	c52.539,0,71.679-35.476,71.679-35.476s13.38,35.305,48.541,35.468h7.512V258.012z"/>
<path style="fill:#F2464F;" d="M177.837,265.112l-49.793-78.138c-1.076-1.689-2.781-2.878-4.739-3.303
	c-1.954-0.427-4.002-0.053-5.682,1.037c-28.763,18.645-45.935,50.212-45.935,84.442c0,31.323,14.218,60.31,39.01,79.525
	c1.324,1.027,2.945,1.575,4.602,1.575c0.323,0,0.647-0.021,0.972-0.063c1.984-0.258,3.783-1.298,4.998-2.89l56.202-73.587
	C179.385,271.203,179.531,267.77,177.837,265.112z"/>
<path style="fill:#D3333C;" d="M177.837,265.112l-10.375-16.28l-67.658,90.084c3.36,3.475,6.995,6.737,10.893,9.758
	c1.324,1.027,2.945,1.575,4.602,1.575c0.323,0,0.647-0.021,0.972-0.063c1.984-0.258,3.783-1.298,4.998-2.89l56.202-73.587
	C179.385,271.203,179.531,267.77,177.837,265.112z"/>
<path style="fill:#F7CB4F;" d="M172.253,154.683c-22.12,0-43.593,6.327-62.095,18.296c-3.468,2.243-4.474,6.863-2.256,10.345
	l57.264,89.861c1.379,2.163,3.767,3.474,6.332,3.475l107.704,0.048c0.001,0,0.002,0,0.003,0c1.991,0,3.902-0.791,5.311-2.199
	c1.376-1.375,2.163-3.229,2.201-5.17c0.001-0.064,0.002-0.134,0.002-0.19C286.719,206.032,235.369,154.683,172.253,154.683z"/>
<path style="fill:#F4B008;" d="M172.253,154.683c-4.64,0-9.25,0.295-13.812,0.845c56.586,6.881,100.567,55.208,100.567,113.62
	c0,0.057-0.001,0.127-0.002,0.19c-0.01,0.551,0.096,3.456,0.222,7.361l19.975,0.009c0.001,0,0.002,0,0.003,0
	c1.991,0,3.902-0.791,5.311-2.199c1.376-1.375,2.163-3.229,2.201-5.17c0.001-0.064,0.002-0.134,0.002-0.19
	C286.719,206.032,235.369,154.683,172.253,154.683z"/>
<g>
</g>
<g>
</g>
<g>
</g>
<g>
</g>
<g>
</g>
<g>
</g>
<g>
</g>
<g>
</g>
<g>
</g>
<g>
</g>
<g>
</g>
<g>
</g>
<g>
</g>
<g>
</g>
<g>
</g>
</svg>
