<?xml version="1.0" encoding="iso-8859-1"?>
<!-- Generator: Adobe Illustrator 19.0.0, SVG Export Plug-In . SVG Version: 6.00 Build 0)  -->
<svg version="1.1" id="Capa_1" xmlns="http://www.w3.org/2000/svg" xmlns:xlink="http://www.w3.org/1999/xlink" x="0px" y="0px"
	 viewBox="0 0 511.999 511.999" style="enable-background:new 0 0 511.999 511.999;" xml:space="preserve">
<path style="fill:#707487;" d="M415.967,57.498h-73.181v12.03c0,6.839-5.596,12.435-12.435,12.435H181.646
	c-6.839,0-12.435-5.596-12.435-12.435v-12.03h-73.18c-15.428,0-27.979,12.552-27.979,27.979V484.02
	c0,15.428,12.552,27.979,27.979,27.979h319.937c15.428,0,27.979-12.552,27.979-27.979V85.477
	C443.947,70.05,431.395,57.498,415.967,57.498z"/>
<path style="fill:#5B5D6E;" d="M88.656,484.021V85.477c0-15.428,12.552-27.979,27.979-27.979H96.031
	c-15.428,0-27.979,12.552-27.979,27.979V484.02c0,15.428,12.552,27.979,27.979,27.979h20.605
	C101.208,512,88.656,499.448,88.656,484.021z"/>
<path style="fill:#E4EAF8;" d="M397.171,470.222H114.828c-2.875,0-5.206-2.331-5.206-5.206V116.387c0-2.875,2.331-5.206,5.206-5.206
	h282.343c2.875,0,5.206,2.331,5.206,5.206v348.629C402.377,467.892,400.046,470.222,397.171,470.222z"/>
<path style="fill:#D8DCE5;" d="M130.227,464.859V116.545c0-2.962,2.401-5.363,5.363-5.363h-20.605c-2.962,0-5.363,2.401-5.363,5.363
	v348.314c0,2.962,2.401,5.363,5.363,5.363h20.605C132.628,470.222,130.227,467.821,130.227,464.859z"/>
<path style="fill:#00AAF0;" d="M260.236,238.572c-1.202,0-2.177-0.974-2.177-2.176v-67.917c-0.686-0.019-1.369-0.052-2.06-0.052
	c-39.878,0-72.206,32.328-72.206,72.206s32.328,72.206,72.206,72.206s72.206-32.328,72.206-72.206c0-0.691-0.033-1.374-0.052-2.061
	L260.236,238.572L260.236,238.572z"/>
<path style="fill:#039ADD;" d="M204.213,240.632c0-33.533,22.862-61.72,53.846-69.843v-2.31c-0.686-0.019-1.369-0.052-2.06-0.052
	c-39.878,0-72.206,32.328-72.206,72.206s32.328,72.206,72.206,72.206c3.468,0,6.873-0.26,10.21-0.732
	C231.168,307.144,204.213,277.043,204.213,240.632z"/>
<path style="fill:#FF80BD;" d="M255.999,168.426v70.029c0,1.202,0.974,2.177,2.177,2.177h70.029
	C328.205,200.754,295.877,168.426,255.999,168.426z"/>
<path style="fill:#F962B1;" d="M276.275,238.456v-67.123c-6.435-1.88-13.234-2.907-20.276-2.907v70.029
	c0,1.202,0.975,2.177,2.177,2.177h20.276C277.249,240.632,276.275,239.658,276.275,238.456z"/>
<g>
	<path style="fill:#C3C8D1;" d="M355.323,357.434H191.335c-4.267,0-7.727-3.459-7.727-7.727s3.459-7.727,7.727-7.727h163.988
		c4.267,0,7.727,3.459,7.727,7.727S359.59,357.434,355.323,357.434z"/>
	<path style="fill:#C3C8D1;" d="M355.323,393.964H191.335c-4.267,0-7.727-3.459-7.727-7.727s3.459-7.727,7.727-7.727h163.988
		c4.267,0,7.727,3.459,7.727,7.727S359.59,393.964,355.323,393.964z"/>
	<path style="fill:#C3C8D1;" d="M355.323,430.496H191.335c-4.267,0-7.727-3.459-7.727-7.727c0-4.268,3.459-7.727,7.727-7.727
		h163.988c4.267,0,7.727,3.459,7.727,7.727S359.59,430.496,355.323,430.496z"/>
	<path style="fill:#C3C8D1;" d="M157.22,357.433c-4.263,0-7.727-3.46-7.727-7.727c0-4.97,4.576-8.507,9.231-7.572
		c3.463,0.648,6.223,3.784,6.223,7.572C164.947,353.969,161.473,357.433,157.22,357.433z"/>
	<path style="fill:#C3C8D1;" d="M157.22,393.965c-4.258,0-7.727-3.465-7.727-7.727c0-3.782,2.738-6.922,6.212-7.572
		c1-0.206,2.03-0.206,3.019,0c3.67,0.687,6.223,3.99,6.223,7.572C164.947,390.394,161.576,393.965,157.22,393.965z"/>
	<path style="fill:#C3C8D1;" d="M157.22,430.498c-4.249,0-7.727-3.457-7.727-7.727c0-4.305,3.497-7.727,7.727-7.727
		c4.295,0,7.727,3.512,7.727,7.727C164.947,426.851,161.649,430.498,157.22,430.498z"/>
</g>
<path style="fill:#00C3FF;" d="M310.474,148.127h-108.95c-9.4,0-17.048-7.648-17.048-17.049V77.842c0-4.267,3.459-7.727,7.727-7.727
	c4.267,0,7.727,3.459,7.727,7.727v53.235c0,0.879,0.715,1.595,1.595,1.595h108.95c0.879,0,1.595-0.716,1.595-1.595V77.842
	c0-4.267,3.459-7.727,7.727-7.727c4.267,0,7.727,3.459,7.727,7.727v53.235C327.522,140.479,319.874,148.127,310.474,148.127z"/>
<path style="fill:#D8DCE5;" d="M280.618,32.725v-20.29C280.618,5.596,275.022,0,268.183,0h-24.368
	c-6.839,0-12.435,5.596-12.435,12.435v20.289L280.618,32.725L280.618,32.725z"/>
<path style="fill:#C3C8D1;" d="M264.8,0h-20.986c-6.839,0-12.435,5.596-12.435,12.435v20.289h20.985V12.435
	C252.365,5.596,257.961,0,264.8,0z"/>
<path style="fill:#E4EAF8;" d="M330.423,32.209H181.574c-7.101,0-12.878,5.777-12.878,12.878V69.6
	c0,7.101,5.777,12.878,12.878,12.878h148.849c7.101,0,12.878-5.777,12.878-12.878V45.087
	C343.301,37.986,337.524,32.209,330.423,32.209z"/>
<path style="fill:#D8DCE5;" d="M330.423,61.874H181.574c-7.101,0-12.878-5.777-12.878-12.878V69.6
	c0,7.101,5.777,12.878,12.878,12.878h148.849c7.101,0,12.878-5.777,12.878-12.878V48.996
	C343.301,56.097,337.524,61.874,330.423,61.874z"/>
<g>
</g>
<g>
</g>
<g>
</g>
<g>
</g>
<g>
</g>
<g>
</g>
<g>
</g>
<g>
</g>
<g>
</g>
<g>
</g>
<g>
</g>
<g>
</g>
<g>
</g>
<g>
</g>
<g>
</g>
</svg>
